<mxfile host="app.diagrams.net" agent="Mozilla/5.0 (Windows NT 10.0; Win64; x64) AppleWebKit/537.36 (KHTML, like Gecko) Chrome/133.0.0.0 Safari/537.36" version="26.0.14">
  <diagram id="C5RBs43oDa-KdzZeNtuy" name="Page-1">
    <mxGraphModel dx="794" dy="458" grid="1" gridSize="10" guides="1" tooltips="1" connect="1" arrows="1" fold="1" page="1" pageScale="1" pageWidth="827" pageHeight="1169" math="0" shadow="0">
      <root>
        <mxCell id="WIyWlLk6GJQsqaUBKTNV-0" />
        <mxCell id="WIyWlLk6GJQsqaUBKTNV-1" parent="WIyWlLk6GJQsqaUBKTNV-0" />
        <mxCell id="EXviPk7qfpvwyyhZaZgb-0" value="Start" style="strokeWidth=2;html=1;shape=mxgraph.flowchart.start_1;whiteSpace=wrap;" parent="WIyWlLk6GJQsqaUBKTNV-1" vertex="1">
          <mxGeometry x="170" y="60" width="100" height="60" as="geometry" />
        </mxCell>
        <mxCell id="EXviPk7qfpvwyyhZaZgb-1" value="" style="endArrow=classic;html=1;rounded=0;" parent="WIyWlLk6GJQsqaUBKTNV-1" edge="1">
          <mxGeometry width="50" height="50" relative="1" as="geometry">
            <mxPoint x="219.5" y="120" as="sourcePoint" />
            <mxPoint x="220" y="170" as="targetPoint" />
          </mxGeometry>
        </mxCell>
        <mxCell id="EXviPk7qfpvwyyhZaZgb-2" value="input Menu&lt;div&gt;String namaMenu&lt;/div&gt;&lt;div&gt;double harga&lt;/div&gt;&lt;div&gt;String kategori&lt;/div&gt;" style="shape=parallelogram;perimeter=parallelogramPerimeter;whiteSpace=wrap;html=1;fixedSize=1;" parent="WIyWlLk6GJQsqaUBKTNV-1" vertex="1">
          <mxGeometry x="142.5" y="169" width="155" height="70" as="geometry" />
        </mxCell>
        <mxCell id="EXviPk7qfpvwyyhZaZgb-3" value="" style="endArrow=classic;html=1;rounded=0;" parent="WIyWlLk6GJQsqaUBKTNV-1" edge="1">
          <mxGeometry width="50" height="50" relative="1" as="geometry">
            <mxPoint x="219.5" y="239" as="sourcePoint" />
            <mxPoint x="220" y="289" as="targetPoint" />
          </mxGeometry>
        </mxCell>
        <mxCell id="_g98knCzUsyNgXALT3Sb-0" value="Menampilkan Menu" style="rounded=0;whiteSpace=wrap;html=1;" vertex="1" parent="WIyWlLk6GJQsqaUBKTNV-1">
          <mxGeometry x="155" y="290" width="130" height="60" as="geometry" />
        </mxCell>
        <mxCell id="_g98knCzUsyNgXALT3Sb-1" value="input Pesanan&lt;div&gt;dari Pelanggan&lt;/div&gt;" style="shape=parallelogram;perimeter=parallelogramPerimeter;whiteSpace=wrap;html=1;fixedSize=1;" vertex="1" parent="WIyWlLk6GJQsqaUBKTNV-1">
          <mxGeometry x="160" y="400" width="120" height="60" as="geometry" />
        </mxCell>
        <mxCell id="_g98knCzUsyNgXALT3Sb-2" value="" style="endArrow=classic;html=1;rounded=0;" edge="1" parent="WIyWlLk6GJQsqaUBKTNV-1">
          <mxGeometry width="50" height="50" relative="1" as="geometry">
            <mxPoint x="219.5" y="350" as="sourcePoint" />
            <mxPoint x="220" y="400" as="targetPoint" />
          </mxGeometry>
        </mxCell>
        <mxCell id="_g98knCzUsyNgXALT3Sb-7" value="" style="endArrow=classic;html=1;rounded=0;" edge="1" parent="WIyWlLk6GJQsqaUBKTNV-1">
          <mxGeometry relative="1" as="geometry">
            <mxPoint x="219.5" y="590" as="sourcePoint" />
            <mxPoint x="219.5" y="660" as="targetPoint" />
          </mxGeometry>
        </mxCell>
        <mxCell id="_g98knCzUsyNgXALT3Sb-8" value="Pesan Lagi?" style="edgeLabel;resizable=0;html=1;;align=center;verticalAlign=middle;" connectable="0" vertex="1" parent="_g98knCzUsyNgXALT3Sb-7">
          <mxGeometry relative="1" as="geometry" />
        </mxCell>
        <mxCell id="_g98knCzUsyNgXALT3Sb-10" value="" style="endArrow=classic;html=1;rounded=0;" edge="1" parent="WIyWlLk6GJQsqaUBKTNV-1">
          <mxGeometry relative="1" as="geometry">
            <mxPoint x="219.5" y="720" as="sourcePoint" />
            <mxPoint x="219.5" y="790" as="targetPoint" />
          </mxGeometry>
        </mxCell>
        <mxCell id="_g98knCzUsyNgXALT3Sb-11" value="Pesan Lagi?" style="edgeLabel;resizable=0;html=1;;align=center;verticalAlign=middle;" connectable="0" vertex="1" parent="_g98knCzUsyNgXALT3Sb-10">
          <mxGeometry relative="1" as="geometry" />
        </mxCell>
        <mxCell id="_g98knCzUsyNgXALT3Sb-16" value="" style="endArrow=classic;html=1;rounded=0;" edge="1" parent="WIyWlLk6GJQsqaUBKTNV-1">
          <mxGeometry relative="1" as="geometry">
            <mxPoint x="219.5" y="460" as="sourcePoint" />
            <mxPoint x="219.5" y="530" as="targetPoint" />
          </mxGeometry>
        </mxCell>
        <mxCell id="_g98knCzUsyNgXALT3Sb-17" value="Pesan Lagi?" style="edgeLabel;resizable=0;html=1;;align=center;verticalAlign=middle;" connectable="0" vertex="1" parent="_g98knCzUsyNgXALT3Sb-16">
          <mxGeometry relative="1" as="geometry" />
        </mxCell>
        <mxCell id="_g98knCzUsyNgXALT3Sb-18" value="input Pesanan&lt;div&gt;dari Pelanggan&lt;/div&gt;" style="shape=parallelogram;perimeter=parallelogramPerimeter;whiteSpace=wrap;html=1;fixedSize=1;" vertex="1" parent="WIyWlLk6GJQsqaUBKTNV-1">
          <mxGeometry x="160" y="530" width="120" height="60" as="geometry" />
        </mxCell>
        <mxCell id="_g98knCzUsyNgXALT3Sb-19" value="" style="endArrow=classic;html=1;rounded=0;" edge="1" parent="WIyWlLk6GJQsqaUBKTNV-1" target="_g98knCzUsyNgXALT3Sb-32">
          <mxGeometry relative="1" as="geometry">
            <mxPoint x="270" y="429.5" as="sourcePoint" />
            <mxPoint x="400" y="430" as="targetPoint" />
          </mxGeometry>
        </mxCell>
        <mxCell id="_g98knCzUsyNgXALT3Sb-20" value="Lanjut Bayar" style="edgeLabel;resizable=0;html=1;;align=center;verticalAlign=middle;" connectable="0" vertex="1" parent="_g98knCzUsyNgXALT3Sb-19">
          <mxGeometry relative="1" as="geometry" />
        </mxCell>
        <mxCell id="_g98knCzUsyNgXALT3Sb-22" value="" style="endArrow=classic;html=1;rounded=0;entryX=0.333;entryY=1;entryDx=0;entryDy=0;entryPerimeter=0;" edge="1" parent="WIyWlLk6GJQsqaUBKTNV-1" target="_g98knCzUsyNgXALT3Sb-32">
          <mxGeometry relative="1" as="geometry">
            <mxPoint x="272.5" y="559.5" as="sourcePoint" />
            <mxPoint x="420" y="560" as="targetPoint" />
            <Array as="points">
              <mxPoint x="430" y="560" />
            </Array>
          </mxGeometry>
        </mxCell>
        <mxCell id="_g98knCzUsyNgXALT3Sb-23" value="Lanjut Bayar" style="edgeLabel;resizable=0;html=1;;align=center;verticalAlign=middle;" connectable="0" vertex="1" parent="_g98knCzUsyNgXALT3Sb-22">
          <mxGeometry relative="1" as="geometry" />
        </mxCell>
        <mxCell id="_g98knCzUsyNgXALT3Sb-24" value="input Pesanan&lt;div&gt;dari Pelanggan&lt;/div&gt;" style="shape=parallelogram;perimeter=parallelogramPerimeter;whiteSpace=wrap;html=1;fixedSize=1;" vertex="1" parent="WIyWlLk6GJQsqaUBKTNV-1">
          <mxGeometry x="160" y="660" width="120" height="60" as="geometry" />
        </mxCell>
        <mxCell id="_g98knCzUsyNgXALT3Sb-26" value="" style="endArrow=classic;html=1;rounded=0;entryX=0.5;entryY=1;entryDx=0;entryDy=0;" edge="1" parent="WIyWlLk6GJQsqaUBKTNV-1" target="_g98knCzUsyNgXALT3Sb-32">
          <mxGeometry relative="1" as="geometry">
            <mxPoint x="270" y="689.5" as="sourcePoint" />
            <mxPoint x="400" y="690" as="targetPoint" />
            <Array as="points">
              <mxPoint x="440" y="690" />
            </Array>
          </mxGeometry>
        </mxCell>
        <mxCell id="_g98knCzUsyNgXALT3Sb-27" value="Lanjut Bayar" style="edgeLabel;resizable=0;html=1;;align=center;verticalAlign=middle;" connectable="0" vertex="1" parent="_g98knCzUsyNgXALT3Sb-26">
          <mxGeometry relative="1" as="geometry" />
        </mxCell>
        <mxCell id="_g98knCzUsyNgXALT3Sb-28" value="input Pesanan&lt;div&gt;dari Pelanggan&lt;/div&gt;" style="shape=parallelogram;perimeter=parallelogramPerimeter;whiteSpace=wrap;html=1;fixedSize=1;" vertex="1" parent="WIyWlLk6GJQsqaUBKTNV-1">
          <mxGeometry x="160" y="790" width="120" height="60" as="geometry" />
        </mxCell>
        <mxCell id="_g98knCzUsyNgXALT3Sb-30" value="" style="endArrow=classic;html=1;rounded=0;entryX=0.678;entryY=0.967;entryDx=0;entryDy=0;entryPerimeter=0;" edge="1" parent="WIyWlLk6GJQsqaUBKTNV-1" target="_g98knCzUsyNgXALT3Sb-32">
          <mxGeometry relative="1" as="geometry">
            <mxPoint x="270" y="819.5" as="sourcePoint" />
            <mxPoint x="400" y="820" as="targetPoint" />
            <Array as="points">
              <mxPoint x="450" y="820" />
            </Array>
          </mxGeometry>
        </mxCell>
        <mxCell id="_g98knCzUsyNgXALT3Sb-31" value="Lanjut Bayar" style="edgeLabel;resizable=0;html=1;;align=center;verticalAlign=middle;" connectable="0" vertex="1" parent="_g98knCzUsyNgXALT3Sb-30">
          <mxGeometry relative="1" as="geometry" />
        </mxCell>
        <mxCell id="_g98knCzUsyNgXALT3Sb-32" value="" style="ellipse;whiteSpace=wrap;html=1;aspect=fixed;" vertex="1" parent="WIyWlLk6GJQsqaUBKTNV-1">
          <mxGeometry x="410" y="400" width="60" height="60" as="geometry" />
        </mxCell>
        <mxCell id="_g98knCzUsyNgXALT3Sb-33" value="" style="endArrow=classic;html=1;rounded=0;entryX=0;entryY=0.5;entryDx=0;entryDy=0;" edge="1" parent="WIyWlLk6GJQsqaUBKTNV-1" target="_g98knCzUsyNgXALT3Sb-34">
          <mxGeometry width="50" height="50" relative="1" as="geometry">
            <mxPoint x="470" y="430" as="sourcePoint" />
            <mxPoint x="580" y="430" as="targetPoint" />
          </mxGeometry>
        </mxCell>
        <mxCell id="_g98knCzUsyNgXALT3Sb-34" value="Menghitung Total Harga Pesanan + Pajak 10% + Biaya Pelayanan Rp 20.000" style="rounded=0;whiteSpace=wrap;html=1;" vertex="1" parent="WIyWlLk6GJQsqaUBKTNV-1">
          <mxGeometry x="560" y="395" width="150" height="70" as="geometry" />
        </mxCell>
        <mxCell id="_g98knCzUsyNgXALT3Sb-35" value="" style="endArrow=classic;html=1;rounded=0;" edge="1" parent="WIyWlLk6GJQsqaUBKTNV-1" target="_g98knCzUsyNgXALT3Sb-37">
          <mxGeometry relative="1" as="geometry">
            <mxPoint x="710" y="429.5" as="sourcePoint" />
            <mxPoint x="810" y="429.5" as="targetPoint" />
          </mxGeometry>
        </mxCell>
        <mxCell id="_g98knCzUsyNgXALT3Sb-36" value="Pesanan &amp;gt; Rp 100.000" style="edgeLabel;resizable=0;html=1;;align=center;verticalAlign=middle;" connectable="0" vertex="1" parent="_g98knCzUsyNgXALT3Sb-35">
          <mxGeometry relative="1" as="geometry" />
        </mxCell>
        <mxCell id="_g98knCzUsyNgXALT3Sb-37" value="Diskon 10%" style="rhombus;whiteSpace=wrap;html=1;" vertex="1" parent="WIyWlLk6GJQsqaUBKTNV-1">
          <mxGeometry x="910" y="385" width="90" height="90" as="geometry" />
        </mxCell>
        <mxCell id="_g98knCzUsyNgXALT3Sb-38" value="" style="endArrow=classic;html=1;rounded=0;exitX=0.5;exitY=1;exitDx=0;exitDy=0;" edge="1" parent="WIyWlLk6GJQsqaUBKTNV-1" source="_g98knCzUsyNgXALT3Sb-34">
          <mxGeometry relative="1" as="geometry">
            <mxPoint x="710" y="460" as="sourcePoint" />
            <mxPoint x="635" y="580" as="targetPoint" />
          </mxGeometry>
        </mxCell>
        <mxCell id="_g98knCzUsyNgXALT3Sb-39" value="Pesanan &amp;gt; Rp 50.000" style="edgeLabel;resizable=0;html=1;;align=center;verticalAlign=middle;" connectable="0" vertex="1" parent="_g98knCzUsyNgXALT3Sb-38">
          <mxGeometry relative="1" as="geometry" />
        </mxCell>
      </root>
    </mxGraphModel>
  </diagram>
</mxfile>
